<svg xmlns="http://www.w3.org/2000/svg" xmlns:xlink="http://www.w3.org/1999/xlink" viewBox="0,0,256,256" width="50px" height="50px"><g fill="#3cb371" fill-rule="nonzero" stroke="none" stroke-width="1" stroke-linecap="butt" stroke-linejoin="miter" stroke-miterlimit="10" stroke-dasharray="" stroke-dashoffset="0" font-family="none" font-weight="none" font-size="none" text-anchor="none" style="mix-blend-mode: normal"><g transform="scale(5.12,5.12)"><path d="M26.5625,1c-3.94141,0 -7.15625,3.14063 -7.15625,7c0,1.76953 0.62891,2.99219 1.71875,4.53125c0.76953,1.08984 0.86328,1.8125 0.71875,2.09375c-0.14062,0.26953 -0.67969,0.42188 -1.375,0.375c-2.47266,-0.16797 -10.12891,-1.05859 -10.15625,-1.0625c-0.17187,-0.02734 -0.34766,-0.03125 -0.5,-0.03125c-0.875,0 -2.39453,0.42188 -2.71875,3.25c-0.08594,0.41406 -0.47656,2.65234 -1.0625,10.40625c-0.0625,0.31641 -0.01562,0.60156 0.03125,0.84375c0.21484,1.09766 0.94141,1.75 1.9375,1.75c1.03125,0 2.20313,-0.69531 3.78125,-1.8125c1.31641,-0.92969 2.41016,-1.34375 3.53125,-1.34375c2.83984,0 5.15625,2.24219 5.15625,5c0,2.75781 -2.31641,5 -5.15625,5c-1.32422,0 -2.23437,-0.36719 -3.59375,-1.4375c-1.57812,-1.24219 -2.76953,-1.8125 -3.71875,-1.8125c-0.83984,0 -1.48828,0.46094 -1.8125,1.25c-0.1875,0.46094 -0.22266,1.14453 -0.15625,1.53125c0.51953,5.44141 0.77734,6.44141 1,7.3125l0.09375,0.375c0.38672,1.6875 1.58203,2.78125 3.03125,2.78125h32.03125c2.32031,0 3.8125,-1.47266 3.8125,-3.75v-25.875c0,-1.71484 -0.91406,-2.85937 -2.75,-3.40625c-0.125,-0.03906 -0.27344,-0.04297 -0.40625,-0.03125c-0.07422,0.00781 -7.58203,0.75391 -10.25,1.0625c-0.10156,0.01172 -0.21484,0.03125 -0.3125,0.03125c-0.25391,0 -0.70703,-0.03906 -0.875,-0.34375c-0.18359,-0.32812 -0.13281,-1.08203 0.5625,-2.1875l0.125,-0.1875c1.06641,-1.69531 1.59375,-2.55078 1.59375,-4.3125c0,-3.85937 -3.18359,-7 -7.125,-7z"></path></g></g></svg>